<svg xmlns="http://www.w3.org/2000/svg" width="98.829" height="80.421" viewBox="0 0 98.829 80.421">
  <g id="quote" transform="translate(0 -9.204)">
    <g id="Group_3" data-name="Group 3">
      <path id="Path_4" data-name="Path 4" d="M96.76,41.6C91.511,22.831,78.562,9.2,65.975,9.2a17.3,17.3,0,0,0-3.005.262,2,2,0,0,0-1.581,2.507l2.591,9.268A2.021,2.021,0,0,0,65.99,22.7l.206,0c4.668,0,13.2,7,17.548,22.545.172.617.335,1.248.492,1.906a22.725,22.725,0,0,0-15.98-1.506,22.4,22.4,0,1,0,12.067,43.15c7.846-2.193,13.745-8.707,16.611-18.338C99.521,61.764,99.456,51.249,96.76,41.6Z" fill="#f06666"/>
      <path id="Path_5" data-name="Path 5" d="M14.088,9.206a17.28,17.28,0,0,0-3,.26A2,2,0,0,0,9.5,11.973L12.1,21.241a2.008,2.008,0,0,0,2.01,1.459l.2,0c4.668,0,13.2,7,17.549,22.545.173.621.336,1.252.492,1.906a22.726,22.726,0,0,0-15.98-1.506,22.4,22.4,0,1,0,12.07,43.15c7.845-2.193,13.744-8.707,16.611-18.338,2.586-8.689,2.522-19.205-.175-28.852C39.625,22.831,26.678,9.206,14.088,9.206Z" fill="#f06666"/>
    </g>
  </g>
</svg>
